PathFileType	4	(X/Y/Z)	/Users/itak/Documents/Research/Walk-IL/dataset/trc/00016_00004.trc
DataRate	CameraRate	NumFrames	NumMarkers	Units	OrigDataRate	OrigDataStartFrame	OrigNumFrames
100.000000	100.000000	4	53	mm	100.000000	405	540
Frame#	Time	RPSI			LPSI			L3			STRN			T10			C7			CLAV			RBAK			LBAK			LSHO			LUPA			LAEL			LAOL			LWTS			LWPS			LFRA			LIFD			LHPS			LHTS			RSHO			RUPA			RAEL			RAOL			RWTS			RWPS			RFRA			RIFD			RHTS			RHPS			RBHD			LFHD			RFHD			LBHD			LHIP			RHIP			RASI			LASI			LKNE			LTHI			LANK			LTIP			LTOE			LMT1			LMT5			LHEE			RKNE			RTHI			RANK			RTIP			RTOE			RMT1			RMT5			RHEE			
		X1	Y1	Z1	X2	Y2	Z2	X3	Y3	Z3	X4	Y4	Z4	X5	Y5	Z5	X6	Y6	Z6	X7	Y7	Z7	X8	Y8	Z8	X9	Y9	Z9	X10	Y10	Z10	X11	Y11	Z11	X12	Y12	Z12	X13	Y13	Z13	X14	Y14	Z14	X15	Y15	Z15	X16	Y16	Z16	X17	Y17	Z17	X18	Y18	Z18	X19	Y19	Z19	X20	Y20	Z20	X21	Y21	Z21	X22	Y22	Z22	X23	Y23	Z23	X24	Y24	Z24	X25	Y25	Z25	X26	Y26	Z26	X27	Y27	Z27	X28	Y28	Z28	X29	Y29	Z29	X30	Y30	Z30	X31	Y31	Z31	X32	Y32	Z32	X33	Y33	Z33	X34	Y34	Z34	X35	Y35	Z35	X36	Y36	Z36	X37	Y37	Z37	X38	Y38	Z38	X39	Y39	Z39	X40	Y40	Z40	X41	Y41	Z41	X42	Y42	Z42	X43	Y43	Z43	X44	Y44	Z44	X45	Y45	Z45	X46	Y46	Z46	X47	Y47	Z47	X48	Y48	Z48	X49	Y49	Z49	X50	Y50	Z50	X51	Y51	Z51	X52	Y52	Z52	X53	Y53	Z53	

406	4.05	-693.2911987304688	1072.004516601562	-161.5183563232422	-713.4026489257812	1064.54443359375	-323.3236083984375	-704.8070068359375	1131.606689453125	-252.1592864990234	-473.6358337402344	1320.324829101562	-275.1036987304688	-720.750732421875	1277.625366210938	-249.4027404785156	-668.6722412109375	1543.546752929688	-256.0587768554688	-513.3411865234375	1447.630737304688	-272.1156311035156	-714.1043090820312	1405.32470703125	-174.1255187988281	-696.0818481445312	1505.448974609375	-353.6225891113281	-600.3338012695312	1514.03759765625	-438.0879516601562	-646.5709838867188	1395.000366210938	-517.9595336914062	-674.1309204101562	1180.792236328125	-550.2224731445312	-726.7213134765625	1173.044555664062	-457.5660400390625	-651.0001220703125	908.1118774414062	-516.33935546875	-730.808349609375	919.3261108398438	-554.022705078125	-687.53076171875	1065.559936523438	-563.3928833007812	-678.451904296875	722.162353515625	-514.8391723632812	-725.1044921875	824.8790283203125	-562.689697265625	-658.2637939453125	813.7799682617188	-539.3512573242188	-572.5439453125	1521.473999023438	-92.25829315185547	-572.3816528320312	1445.6982421875	-21.40094375610352	-565.1813354492188	1173.940795898438	0.9370785355567932	-582.61962890625	1145.897827148438	-94.17087554931641	-400.0873413085938	941.9849243164062	-62.18827819824219	-449.2346496582031	915.02490234375	10.49337100982666	-536.8131103515625	1100.8056640625	10.80809497833252	-348.9595031738281	762.532958984375	-85.27668762207031	-345.6617126464844	839.6971435546875	-57.63565444946289	-391.5536193847656	824.8820190429688	-0.4109782874584198	-592.9822998046875	1722.869995117188	-178.6093292236328	-423.127685546875	1724.532592773438	-305.3895568847656	-419.9603576660156	1723.21044921875	-206.8082427978516	-605.3499755859375	1730.109252929688	-322.9906616210938	-633.7796630859375	960.8143920898438	-438.9593811035156	-567.3516845703125	965.8724365234375	-74.25083160400391	-477.2186279296875	993.6593017578125	-158.9388427734375	-509.8934936523438	1006.896850585938	-391.6882934570312	-525.30029296875	523.4201049804688	-384.4588928222656	-570.2505493164062	654.5061645507812	-423.6553039550781	-633.6582641601562	39.92926406860352	-371.5581665039062	-602.6506958007812	283.0658264160156	-391.94189453125	-414.1120300292969	40.21578216552734	-309.0669555664062	-472.4728393554688	46.83225250244141	-289.2885437011719	-508.9031372070312	43.79843521118164	-389.9803771972656	-703.378662109375	46.6986083984375	-317.1156921386719	-528.6781005859375	521.1222534179688	-113.1142578125	-536.56640625	797.5477294921875	-78.20941162109375	-862.0455932617188	136.6762847900391	-114.9837036132812	-599.689453125	406.7841491699219	-106.8732223510742	-646.5005493164062	56.11680603027344	-149.9373474121094	-705.4221801757812	79.16091156005859	-181.1237182617188	-725.2133178710938	78.71305084228516	-88.55902862548828	-912.7919311523438	156.6056518554688	-161.5641632080078	
407	4.06	-698.729248046875	1072.196655273438	-160.7102508544922	-718.451416015625	1064.572387695312	-322.5453186035156	-710.2010498046875	1131.407836914062	-251.1755828857422	-479.3820495605469	1320.550903320312	-274.0700988769531	-726.1683959960938	1277.466918945312	-248.1203765869141	-674.8442993164062	1543.49072265625	-254.7422332763672	-519.3106079101562	1447.797973632812	-271.1270141601562	-719.87158203125	1405.1962890625	-172.6965942382812	-702.3527221679688	1505.337524414062	-352.1728820800781	-606.783203125	1514.06005859375	-436.8524780273438	-653.924560546875	1395.419311523438	-516.6627807617188	-683.6608276367188	1181.780883789062	-549.3162841796875	-735.64599609375	1174.224853515625	-456.3025512695312	-662.6351928710938	908.814208984375	-516.3442993164062	-742.5836791992188	920.8142700195312	-553.4671020507812	-698.1165771484375	1066.707641601562	-562.7408447265625	-691.7091674804688	723.1283569335938	-515.0473022460938	-737.8247680664062	826.3294677734375	-562.3893432617188	-670.90478515625	814.6069946289062	-539.5081176757812	-578.38427734375	1521.657348632812	-91.15557861328125	-577.8447875976562	1445.854858398438	-20.28075408935547	-569.1410522460938	1174.014282226562	1.676736116409302	-587.0670166015625	1146.042236328125	-93.38119506835938	-402.7415161132812	943.4212646484375	-63.14365005493164	-451.2722473144531	915.856689453125	9.805082321166992	-540.2521362304688	1100.9677734375	11.20613479614258	-350.3819580078125	764.4171752929688	-87.05562591552734	-347.5699157714844	841.5065307617188	-59.2354850769043	-392.9180603027344	826.2022705078125	-1.748941540718079	-599.1558227539062	1723.086791992188	-177.6173553466797	-429.4514770507812	1724.646484375	-304.5849609375	-426.1388244628906	1723.39990234375	-206.0292816162109	-611.6537475585938	1730.18896484375	-321.9695129394531	-638.3260498046875	960.9525146484375	-438.02978515625	-573.355224609375	965.6392211914062	-73.18096923828125	-482.7198181152344	993.4989013671875	-157.4427490234375	-514.7068481445312	1007.167236328125	-390.2560424804688	-527.7799682617188	524.0731811523438	-383.44482421875	-573.4940185546875	654.841552734375	-422.7872009277344	-633.7376098632812	39.99459838867188	-371.547607421875	-603.7963256835938	283.3340454101562	-391.4854736328125	-414.3162231445312	40.22383117675781	-308.7740478515625	-472.6048583984375	46.8060417175293	-289.0328369140625	-509.0003356933594	44.17532730102539	-389.7746276855469	-703.5072631835938	46.60036468505859	-317.1437072753906	-541.7098388671875	520.2999267578125	-111.9822006225586	-544.8157348632812	796.8643188476562	-77.33390808105469	-878.6744384765625	138.6314086914062	-114.9325256347656	-613.9312744140625	406.5372924804688	-106.0767364501953	-664.119873046875	55.6164665222168	-150.2494964599609	-722.7503662109375	79.6593017578125	-181.1361083984375	-742.3648681640625	79.02144622802734	-88.76657104492188	-929.1886596679688	159.3076934814453	-161.3766326904297	
408	4.07	-704.19482421875	1072.329956054688	-159.8267211914062	-723.55322265625	1064.572143554688	-321.7021179199219	-715.6185302734375	1131.184936523438	-250.1136932373047	-485.1275634765625	1320.699462890625	-272.9819946289062	-731.5609741210938	1277.287719726562	-246.7837371826172	-680.9468994140625	1543.396240234375	-253.3736114501953	-525.2380981445312	1447.898193359375	-270.0839538574219	-725.5975341796875	1405.040283203125	-171.2158966064453	-708.5716552734375	1505.196899414062	-350.6665954589844	-613.1878662109375	1514.040405273438	-435.5613708496094	-661.239990234375	1395.806396484375	-515.2766723632812	-693.1334228515625	1182.737060546875	-548.29052734375	-744.4973754882812	1175.36376953125	-454.9238586425781	-673.9429321289062	909.537109375	-516.1151733398438	-754.0120239257812	922.212646484375	-552.6549072265625	-708.5516967773438	1067.806762695312	-561.9180908203125	-704.324462890625	724.1016845703125	-514.9417724609375	-750.0470581054688	827.697509765625	-561.79052734375	-683.06494140625	815.4595947265625	-539.3871459960938	-584.1627807617188	1521.7900390625	-90.00353240966797	-583.2777709960938	1445.967529296875	-19.11042404174805	-573.1242065429688	1174.060913085938	2.496490955352783	-591.5552978515625	1146.13330078125	-92.51406097412109	-405.467041015625	944.8143920898438	-64.00106811523438	-453.36181640625	916.675048828125	9.222482681274414	-543.7392578125	1101.097900390625	11.683349609375	-351.8886108398438	766.2801513671875	-88.72940063476562	-349.5649719238281	843.2791137695312	-60.73263931274414	-394.3716125488281	827.4944458007812	-2.988863229751587	-605.2986450195312	1723.225463867188	-176.5695343017578	-435.7495727539062	1724.72998046875	-303.7113952636719	-432.291259765625	1723.551513671875	-205.182861328125	-617.9144287109375	1730.204467773438	-320.8896179199219	-642.9133911132812	961.07470703125	-437.0598449707031	-579.4031372070312	965.3175659179688	-72.06589508056641	-488.2770385742188	993.2484741210938	-155.9098510742188	-519.5779418945312	1007.3857421875	-388.7812194824219	-530.3096313476562	524.7237548828125	-382.4019775390625	-576.7783813476562	655.1759643554688	-421.8784790039062	-633.8087158203125	40.06484985351562	-371.5227355957031	-604.9637451171875	283.601806640625	-391.0003662109375	-414.5162048339844	40.22272491455078	-308.4632263183594	-472.7535705566406	46.74956512451172	-288.7689819335938	-509.1181945800781	44.5925178527832	-389.551513671875	-703.6085815429688	46.49353408813477	-317.1484985351562	-554.7633056640625	519.5901489257812	-110.8471221923828	-553.1411743164062	796.1571044921875	-76.34851837158203	-894.297607421875	139.8328857421875	-114.8543167114258	-627.9381713867188	406.2916259765625	-105.2802581787109	-680.569580078125	54.77280807495117	-150.4754180908203	-738.9387817382812	79.69725799560547	-181.1515960693359	-758.4735717773438	78.81671142578125	-88.84268188476562	-944.6094360351562	161.1902160644531	-161.1554107666016	
409	4.08	-709.6917114257812	1072.3984375	-158.8557434082031	-728.7149047851562	1064.548217773438	-320.7917785644531	-721.063720703125	1130.93896484375	-248.9649047851562	-490.8719787597656	1320.76416015625	-271.8406677246094	-736.9395141601562	1277.081665039062	-245.3862915039062	-686.982666015625	1543.256591796875	-251.9535064697266	-531.1270141601562	1447.923706054688	-268.9876708984375	-731.2852783203125	1404.849609375	-169.6835632324219	-714.740966796875	1505.018676757812	-349.1045227050781	-619.5540161132812	1513.969360351562	-434.2169189453125	-668.5216064453125	1396.145141601562	-513.7996215820312	-702.5247802734375	1183.642333984375	-547.1428833007812	-753.2269897460938	1176.43505859375	-453.4221496582031	-684.90234375	910.2528076171875	-515.6669921875	-765.0921630859375	923.500244140625	-551.5991821289062	-718.813720703125	1068.83740234375	-560.9270629882812	-716.33349609375	725.038330078125	-514.53857421875	-761.783203125	828.9600830078125	-560.9066772460938	-694.7565307617188	816.2936401367188	-539.007080078125	-589.8834838867188	1521.866821289062	-88.80366516113281	-588.6813354492188	1446.031127929688	-17.89017486572266	-577.138671875	1174.070556640625	3.393954992294312	-596.08935546875	1146.164428710938	-91.57227325439453	-408.2720336914062	946.1512451171875	-64.75751495361328	-455.517333984375	917.4702758789062	8.747660636901855	-547.2800903320312	1101.190307617188	12.23824119567871	-353.4817810058594	768.1152954101562	-90.29709625244141	-351.6414184570312	845.00830078125	-62.12489700317383	-395.9161682128906	828.7505493164062	-4.125656604766846	-611.4071044921875	1723.277465820312	-175.4674682617188	-442.0170288085938	1724.776245117188	-302.7733764648438	-438.4182434082031	1723.656127929688	-204.2693023681641	-624.1358642578125	1730.151245117188	-319.7547607421875	-647.56005859375	961.1873779296875	-436.0482788085938	-585.510498046875	964.8981323242188	-70.89739990234375	-493.9106140136719	992.891357421875	-154.3351898193359	-524.5189819335938	1007.544311523438	-387.2579040527344	-532.90380859375	525.3679809570312	-381.3364868164062	-580.1063232421875	655.5115356445312	-420.9346313476562	-633.8746337890625	40.13908767700195	-371.4856872558594	-606.1626586914062	283.86865234375	-390.4941711425781	-414.7081604003906	40.20821380615234	-308.1347961425781	-472.9283142089844	46.65868759155273	-288.5016479492188	-509.2577514648438	45.04476165771484	-389.3173522949219	-703.6921997070312	46.3802375793457	-317.1357116699219	-567.8516235351562	518.97705078125	-109.7140045166016	-561.5654296875	795.4050903320312	-75.23979949951172	-908.8444213867188	140.1708068847656	-114.7400894165039	-641.7000122070312	406.0206604003906	-104.4857559204102	-695.741455078125	53.6097412109375	-150.6464996337891	-753.8970336914062	79.25788879394531	-181.1859436035156	-773.4921875	78.00755310058594	-88.77455139160156	-958.9974365234375	162.1366119384766	-160.8825531005859	
